<?xml version="1.0" encoding="UTF-8" standalone="no"?>
<svg
   version="1.1"
   id="svg2"
   width="264"
   height="44"
   viewBox="0 0 264 44">
  <defs
     id="defs6" />
  <g
     id="g991"
     transform="translate(0.12104153,0.15124455)">
    <g
       id="g10"
       transform="matrix(1.1098369,0,0,1.1098369,-106.2246,-95.704578)">
      <g
         aria-label="Activate Windows"
         id="text839"
         style="font-style:normal;font-weight:normal;font-size:20px;line-height:1.25;font-family:sans-serif;fill:#000000;fill-opacity:1;stroke:none;stroke-width:0.74606">
        <path
           d="m 108.18482,101.0377 h -1.8164 l -1.48438,-3.925784 h -5.937499 l -1.396485,3.925784 h -1.826171 l 5.371095,-14.003909 h 1.69922 z m -3.83789,-5.400394 -2.19726,-5.966797 q -0.10743,-0.292968 -0.21485,-0.9375 h -0.0391 q -0.0977,0.595703 -0.22461,0.9375 l -2.177734,5.966797 z"
           style="font-style:normal;font-variant:normal;font-weight:normal;font-stretch:normal;font-size:20px;font-family:'Segoe UI';-inkscape-font-specification:'Segoe UI';fill:#000000;stroke-width:0.74606"
           id="path885" />
        <path
           d="m 116.84693,100.57871 q -1.15234,0.69336 -2.73437,0.69336 -2.13868,0 -3.45703,-1.386717 -1.3086,-1.396484 -1.3086,-3.613281 0,-2.470703 1.41602,-3.964844 1.41601,-1.503906 3.77929,-1.503906 1.31836,0 2.32422,0.488281 v 1.640625 q -1.11328,-0.78125 -2.38281,-0.78125 -1.5332,0 -2.51953,1.103516 -0.97656,1.09375 -0.97656,2.880859 0,1.757813 0.91797,2.773438 0.92773,1.015625 2.48046,1.015625 1.3086,0 2.46094,-0.869141 z"
           style="font-style:normal;font-variant:normal;font-weight:normal;font-stretch:normal;font-size:20px;font-family:'Segoe UI';-inkscape-font-specification:'Segoe UI';fill:#000000;stroke-width:0.74606"
           id="path887" />
        <path
           d="m 123.90748,100.94004 q -0.56641,0.3125 -1.49414,0.3125 -2.62696,0 -2.62696,-2.929687 v -5.917969 h -1.71875 v -1.367187 h 1.71875 v -2.441406 l 1.60157,-0.517579 v 2.958985 h 2.51953 v 1.367187 h -2.51953 v 5.634766 q 0,1.005859 0.34179,1.435547 0.3418,0.429687 1.13282,0.429687 0.60547,0 1.04492,-0.332031 z"
           style="font-style:normal;font-variant:normal;font-weight:normal;font-stretch:normal;font-size:20px;font-family:'Segoe UI';-inkscape-font-specification:'Segoe UI';fill:#000000;stroke-width:0.74606"
           id="path889" />
        <path
           d="m 126.86646,88.498634 q -0.42968,0 -0.73242,-0.292968 -0.30273,-0.292969 -0.30273,-0.742188 0,-0.449219 0.30273,-0.742187 0.30274,-0.302735 0.73242,-0.302735 0.43946,0 0.74219,0.302735 0.3125,0.292968 0.3125,0.742187 0,0.429688 -0.3125,0.732422 -0.30273,0.302734 -0.74219,0.302734 z m 0.78125,12.539066 h -1.60156 V 91.037697 h 1.60156 z"
           style="font-style:normal;font-variant:normal;font-weight:normal;font-stretch:normal;font-size:20px;font-family:'Segoe UI';-inkscape-font-specification:'Segoe UI';fill:#000000;stroke-width:0.74606"
           id="path891" />
        <path
           d="m 138.75123,91.037697 -3.98438,10.000003 h -1.57226 l -3.78906,-10.000003 h 1.75781 l 2.53906,7.265625 q 0.2832,0.800781 0.35156,1.396484 h 0.0391 q 0.0976,-0.751953 0.3125,-1.357422 l 2.65625,-7.304687 z"
           style="font-style:normal;font-variant:normal;font-weight:normal;font-stretch:normal;font-size:20px;font-family:'Segoe UI';-inkscape-font-specification:'Segoe UI';fill:#000000;stroke-width:0.74606"
           id="path893" />
        <path
           d="m 147.62818,101.0377 h -1.60156 v -1.562503 h -0.0391 q -1.04493,1.796873 -3.07618,1.796873 -1.49414,0 -2.34375,-0.79101 -0.83984,-0.791019 -0.83984,-2.099613 0,-2.802735 3.30078,-3.261719 l 2.99805,-0.419922 q 0,-2.548828 -2.06055,-2.548828 -1.80664,0 -3.26172,1.230469 v -1.640625 q 1.47461,-0.9375 3.39844,-0.9375 3.52539,0 3.52539,3.730469 z m -1.60156,-5.058597 -2.41211,0.332031 q -1.11328,0.15625 -1.67969,0.556641 -0.5664,0.390625 -0.5664,1.396484 0,0.732422 0.51757,1.201172 0.52735,0.458985 1.39649,0.458985 1.1914,0 1.96289,-0.830079 0.78125,-0.839843 0.78125,-2.11914 z"
           style="font-style:normal;font-variant:normal;font-weight:normal;font-stretch:normal;font-size:20px;font-family:'Segoe UI';-inkscape-font-specification:'Segoe UI';fill:#000000;stroke-width:0.74606"
           id="path895" />
        <path
           d="m 155.28443,100.94004 q -0.5664,0.3125 -1.49414,0.3125 -2.62695,0 -2.62695,-2.929687 v -5.917969 h -1.71875 v -1.367187 h 1.71875 v -2.441406 l 1.60156,-0.517579 v 2.958985 h 2.51953 v 1.367187 h -2.51953 v 5.634766 q 0,1.005859 0.3418,1.435547 0.34179,0.429687 1.13281,0.429687 0.60547,0 1.04492,-0.332031 z"
           style="font-style:normal;font-variant:normal;font-weight:normal;font-stretch:normal;font-size:20px;font-family:'Segoe UI';-inkscape-font-specification:'Segoe UI';fill:#000000;stroke-width:0.74606"
           id="path897" />
        <path
           d="m 165.46021,96.438087 h -7.06054 q 0.0391,1.669922 0.89843,2.578125 0.85938,0.908204 2.36328,0.908204 1.68946,0 3.10547,-1.113282 v 1.503906 q -1.31836,0.95703 -3.48632,0.95703 -2.11915,0 -3.33008,-1.35742 -1.21094,-1.367188 -1.21094,-3.837891 0,-2.333984 1.31836,-3.798828 1.32812,-1.474609 3.29101,-1.474609 1.9629,0 3.03711,1.269531 1.07422,1.269531 1.07422,3.525391 z m -1.64062,-1.357421 q -0.01,-1.386719 -0.67383,-2.158204 -0.6543,-0.771484 -1.82617,-0.771484 -1.13281,0 -1.92383,0.810547 -0.79102,0.810547 -0.97656,2.119141 z"
           style="font-style:normal;font-variant:normal;font-weight:normal;font-stretch:normal;font-size:20px;font-family:'Segoe UI';-inkscape-font-specification:'Segoe UI';fill:#000000;stroke-width:0.74606"
           id="path899" />
        <path
           d="m 190.17701,87.033791 -3.95508,14.003909 h -1.92383 l -2.88086,-10.234378 q -0.18554,-0.654297 -0.22461,-1.425781 h -0.0391 q -0.0586,0.722656 -0.2539,1.40625 l -2.90039,10.253909 h -1.9043 l -4.10156,-14.003909 h 1.80664 l 2.97851,10.742187 q 0.18555,0.673828 0.23438,1.40625 h 0.0488 q 0.0488,-0.517578 0.30273,-1.40625 l 3.0957,-10.742187 h 1.57227 l 2.96875,10.820312 q 0.15625,0.556641 0.23437,1.308594 h 0.0391 q 0.0391,-0.507813 0.26367,-1.347656 l 2.86133,-10.78125 z"
           style="font-style:normal;font-variant:normal;font-weight:normal;font-stretch:normal;font-size:20px;font-family:'Segoe UI';-inkscape-font-specification:'Segoe UI';fill:#000000;stroke-width:0.74606"
           id="path901" />
        <path
           d="m 192.86256,88.498634 q -0.42969,0 -0.73243,-0.292968 -0.30273,-0.292969 -0.30273,-0.742188 0,-0.449219 0.30273,-0.742187 0.30274,-0.302735 0.73243,-0.302735 0.43945,0 0.74218,0.302735 0.3125,0.292968 0.3125,0.742187 0,0.429688 -0.3125,0.732422 -0.30273,0.302734 -0.74218,0.302734 z m 0.78125,12.539066 h -1.60157 V 91.037697 h 1.60157 z"
           style="font-style:normal;font-variant:normal;font-weight:normal;font-stretch:normal;font-size:20px;font-family:'Segoe UI';-inkscape-font-specification:'Segoe UI';fill:#000000;stroke-width:0.74606"
           id="path903" />
        <path
           d="m 205.18678,101.0377 h -1.60157 v -5.703128 q 0,-3.183594 -2.32422,-3.183594 -1.20117,0 -1.99218,0.908203 -0.78125,0.898438 -0.78125,2.275391 v 5.703128 h -1.60157 V 91.037697 h 1.60157 v 1.660156 h 0.0391 q 1.13281,-1.894531 3.28125,-1.894531 1.64062,0 2.50976,1.064453 0.86915,1.054687 0.86915,3.056641 z"
           style="font-style:normal;font-variant:normal;font-weight:normal;font-stretch:normal;font-size:20px;font-family:'Segoe UI';-inkscape-font-specification:'Segoe UI';fill:#000000;stroke-width:0.74606"
           id="path905" />
        <path
           d="m 216.73951,101.0377 h -1.60156 v -1.699222 h -0.0391 q -1.11328,1.933592 -3.4375,1.933592 -1.88476,0 -3.01757,-1.337889 -1.12305,-1.347656 -1.12305,-3.662109 0,-2.480469 1.25,-3.97461 1.25,-1.49414 3.33008,-1.49414 2.06054,0 2.99804,1.621094 h 0.0391 v -6.191407 h 1.60156 z m -1.60156,-4.521488 v -1.474609 q 0,-1.210937 -0.80078,-2.050781 -0.80079,-0.839844 -2.03125,-0.839844 -1.46485,0 -2.30469,1.074219 -0.83985,1.074219 -0.83985,2.96875 0,1.728515 0.80079,2.734375 0.81054,0.996094 2.16796,0.996094 1.3379,0 2.16797,-0.966797 0.83985,-0.966797 0.83985,-2.441407 z"
           style="font-style:normal;font-variant:normal;font-weight:normal;font-stretch:normal;font-size:20px;font-family:'Segoe UI';-inkscape-font-specification:'Segoe UI';fill:#000000;stroke-width:0.74606"
           id="path907" />
        <path
           d="m 224.16138,101.27207 q -2.21679,0 -3.54492,-1.396483 -1.31836,-1.40625 -1.31836,-3.720703 0,-2.519531 1.37696,-3.935547 1.37695,-1.416015 3.7207,-1.416015 2.23633,0 3.48633,1.376953 1.25976,1.376953 1.25976,3.818359 0,2.392578 -1.35742,3.837891 -1.34765,1.435545 -3.62305,1.435545 z m 0.11719,-9.121092 q -1.54297,0 -2.4414,1.054688 -0.89844,1.044921 -0.89844,2.890625 0,1.777343 0.9082,2.802734 0.9082,1.025391 2.43164,1.025391 1.55274,0 2.38281,-1.00586 0.83985,-1.005859 0.83985,-2.861328 0,-1.875 -0.83985,-2.890625 -0.83007,-1.015625 -2.38281,-1.015625 z"
           style="font-style:normal;font-variant:normal;font-weight:normal;font-stretch:normal;font-size:20px;font-family:'Segoe UI';-inkscape-font-specification:'Segoe UI';fill:#000000;stroke-width:0.74606"
           id="path909" />
        <path
           d="m 244.2981,91.037697 -2.99804,10.000003 h -1.66016 l -2.06055,-7.158206 q -0.11718,-0.410157 -0.15625,-0.927735 h -0.0391 q -0.0293,0.351563 -0.20508,0.908203 l -2.23633,7.177738 h -1.60156 l -3.02734,-10.000003 h 1.67969 l 2.07031,7.519531 q 0.0977,0.341797 0.13672,0.898438 h 0.0781 q 0.0293,-0.429688 0.17578,-0.917969 l 2.30469,-7.5 h 1.46484 l 2.07032,7.539062 q 0.0977,0.361328 0.14648,0.898438 h 0.0781 q 0.0195,-0.38086 0.16601,-0.898438 l 2.03125,-7.539062 z"
           style="font-style:normal;font-variant:normal;font-weight:normal;font-stretch:normal;font-size:20px;font-family:'Segoe UI';-inkscape-font-specification:'Segoe UI';fill:#000000;stroke-width:0.74606"
           id="path911" />
        <path
           d="m 245.5481,100.67637 v -1.718751 q 1.3086,0.966797 2.88086,0.966797 2.10938,0 2.10938,-1.40625 0,-0.400391 -0.18555,-0.673829 -0.17578,-0.283203 -0.48828,-0.498046 -0.30273,-0.214844 -0.72266,-0.38086 -0.41015,-0.175781 -0.88867,-0.361328 -0.66406,-0.263672 -1.17187,-0.527344 -0.49805,-0.273437 -0.83985,-0.605468 -0.33203,-0.341797 -0.50781,-0.771485 -0.16602,-0.429687 -0.16602,-1.005859 0,-0.703125 0.32227,-1.240235 0.32227,-0.546875 0.85938,-0.908203 0.5371,-0.371093 1.2207,-0.55664 0.69336,-0.185547 1.42578,-0.185547 1.29883,0 2.32422,0.449219 v 1.621093 q -1.10352,-0.722656 -2.53906,-0.722656 -0.44922,0 -0.81055,0.107422 -0.36133,0.09766 -0.625,0.283203 -0.25391,0.185547 -0.40039,0.449219 -0.13672,0.253906 -0.13672,0.566406 0,0.390625 0.13672,0.654297 0.14648,0.263672 0.41992,0.46875 0.27344,0.205078 0.66406,0.371094 0.39063,0.166015 0.88867,0.361328 0.66407,0.253906 1.19141,0.527344 0.52734,0.263671 0.89844,0.605468 0.37109,0.332032 0.5664,0.771485 0.20508,0.439453 0.20508,1.044922 0,0.742187 -0.33203,1.289062 -0.32226,0.546872 -0.86914,0.908202 -0.54687,0.36133 -1.25976,0.53711 -0.7129,0.17578 -1.49415,0.17578 -1.54296,0 -2.67578,-0.5957 z"
           style="font-style:normal;font-variant:normal;font-weight:normal;font-stretch:normal;font-size:20px;font-family:'Segoe UI';-inkscape-font-specification:'Segoe UI';fill:#000000;stroke-width:0.74606"
           id="path913" />
      </g>
      <g
         aria-label="Go to Settings to activate Windows."
         id="text839-3"
         style="font-style:normal;font-weight:normal;font-size:15.9674px;line-height:1.25;font-family:sans-serif;fill:#000000;fill-opacity:1;stroke:none;stroke-width:0.744541">
        <g
           aria-label="Go to settings to activate Windows."
           id="text900"
           style="font-style:normal;font-weight:normal;font-size:16.0763px;line-height:1.25;font-family:sans-serif;fill:#000000;fill-opacity:1;stroke:none;stroke-width:0.748093">
          <path
             d="m 104.33177,121.18149 q -1.74265,0.98122 -3.58734,0.98122 -2.29998,0 -3.720786,-1.5621 -1.420805,-1.5621 -1.420805,-4.09757 0,-2.55902 1.530702,-4.27027 1.530702,-1.71124 4.089719,-1.71124 1.48361,0 2.88086,0.59658 v 0.84777 q -1.5307,-0.73788 -2.99075,-0.73788 -2.127287,0 -3.422496,1.45221 -1.28736,1.4522 -1.28736,3.70508 0,2.37063 1.208862,3.72079 1.216712,1.3423 3.273344,1.3423 1.52286,0 2.66892,-0.65937 v -3.71294 h -2.65322 v -0.70648 h 3.43035 z"
             style="font-style:normal;font-variant:normal;font-weight:300;font-stretch:normal;font-size:16.0763px;font-family:'Segoe UI';-inkscape-font-specification:'Segoe UI Light';stroke-width:0.748093"
             id="path1078" />
          <path
             d="m 109.99929,122.16271 q -1.75834,0 -2.78666,-1.15391 -1.02047,-1.16177 -1.02047,-3.01431 0,-2.00169 1.06757,-3.13205 1.07541,-1.13036 2.82591,-1.13036 1.71909,0 2.71601,1.12251 0.99692,1.12252 0.99692,3.1085 0,1.8761 -1.02047,3.03786 -1.01261,1.16176 -2.77881,1.16176 z m 0.0549,-7.77126 q -1.42081,0 -2.26858,0.95767 -0.83992,0.95767 -0.83992,2.66107 0,1.5778 0.82422,2.53547 0.82422,0.95767 2.25288,0.95767 1.45221,0 2.23718,-0.94197 0.78498,-0.94197 0.78498,-2.61397 0,-1.71909 -0.78498,-2.63751 -0.77713,-0.91843 -2.20578,-0.91843 z"
             style="font-style:normal;font-variant:normal;font-weight:300;font-stretch:normal;font-size:16.0763px;font-family:'Segoe UI';-inkscape-font-specification:'Segoe UI Light';stroke-width:0.748093"
             id="path1080" />
          <path
             d="m 123.37527,121.85657 q -0.56518,0.26689 -1.05971,0.26689 -1.7819,0 -1.7819,-2.13513 v -5.40063 h -1.44435 v -0.65938 h 1.44435 v -2.08804 q 0.1727,-0.0628 0.36109,-0.12559 0.1884,-0.055 0.36109,-0.11775 v 2.33138 h 2.11943 v 0.65938 h -2.11943 v 5.30643 q 0,0.83208 0.25904,1.20887 0.26689,0.36893 0.89487,0.36893 0.44744,0 0.96552,-0.29044 z"
             style="font-style:normal;font-variant:normal;font-weight:300;font-stretch:normal;font-size:16.0763px;font-family:'Segoe UI';-inkscape-font-specification:'Segoe UI Light';stroke-width:0.748093"
             id="path1082" />
          <path
             d="m 128.19503,122.16271 q -1.75835,0 -2.78667,-1.15391 -1.02047,-1.16177 -1.02047,-3.01431 0,-2.00169 1.06757,-3.13205 1.07542,-1.13036 2.82591,-1.13036 1.7191,0 2.71602,1.12251 0.99692,1.12252 0.99692,3.1085 0,1.8761 -1.02047,3.03786 -1.01262,1.16176 -2.77881,1.16176 z m 0.0549,-7.77126 q -1.4208,0 -2.26858,0.95767 -0.83992,0.95767 -0.83992,2.66107 0,1.5778 0.82422,2.53547 0.82423,0.95767 2.25288,0.95767 1.45221,0 2.23718,-0.94197 0.78498,-0.94197 0.78498,-2.61397 0,-1.71909 -0.78498,-2.63751 -0.77712,-0.91843 -2.20578,-0.91843 z"
             style="font-style:normal;font-variant:normal;font-weight:300;font-stretch:normal;font-size:16.0763px;font-family:'Segoe UI';-inkscape-font-specification:'Segoe UI Light';stroke-width:0.748093"
             id="path1084" />
          <path
             d="m 137.97582,121.61323 v -0.87132 q 0.40819,0.35324 0.98907,0.55733 0.58088,0.20409 1.00477,0.20409 1.89179,0 1.89179,-1.5464 0,-0.53378 -0.41604,-0.91057 -0.41604,-0.37679 -1.35016,-0.77713 -1.15391,-0.50238 -1.6249,-1.03616 -0.46313,-0.54164 -0.46313,-1.31091 0,-0.98122 0.74572,-1.58565 0.75358,-0.60443 1.85255,-0.60443 1.03616,0 1.77404,0.42388 v 0.81638 q -0.89487,-0.58089 -1.85254,-0.58089 -0.79283,0 -1.27951,0.41604 -0.48669,0.40819 -0.48669,1.06757 0,0.57303 0.30614,0.93412 0.30615,0.35324 1.35016,0.81637 1.25596,0.56519 1.72695,1.05187 0.47098,0.47884 0.47098,1.27951 0,0.95767 -0.72217,1.58565 -0.71433,0.62013 -1.97814,0.62013 -1.16177,0 -1.93889,-0.54948 z"
             style="font-style:normal;font-variant:normal;font-weight:300;font-stretch:normal;font-size:16.0763px;font-family:'Segoe UI';-inkscape-font-specification:'Segoe UI Light';stroke-width:0.748093"
             id="path1086" />
          <path
             d="m 144.80511,117.97879 q 0,1.6563 0.76143,2.59042 0.76927,0.93412 2.10373,0.93412 1.35016,0 2.63752,-0.99692 v 0.76928 q -1.24811,0.88702 -2.78667,0.88702 -1.55425,0 -2.51192,-1.11466 -0.95767,-1.11467 -0.95767,-3.14775 0,-1.75835 0.99692,-2.95936 1.00477,-1.20886 2.60612,-1.20886 1.4993,0 2.29998,1.05186 0.80067,1.05187 0.80067,2.87301 v 0.32184 z m 5.19654,-0.65938 q -0.0471,-1.3894 -0.66723,-2.15868 -0.62013,-0.76928 -1.71125,-0.76928 -1.13036,0 -1.87609,0.76143 -0.73788,0.75358 -0.91057,2.16653 z"
             style="font-style:normal;font-variant:normal;font-weight:300;font-stretch:normal;font-size:16.0763px;font-family:'Segoe UI';-inkscape-font-specification:'Segoe UI Light';stroke-width:0.748093"
             id="path1088" />
          <path
             d="m 155.92821,121.85657 q -0.56518,0.26689 -1.05972,0.26689 -1.78189,0 -1.78189,-2.13513 v -5.40063 h -1.44436 v -0.65938 h 1.44436 v -2.08804 q 0.17269,-0.0628 0.36109,-0.12559 0.18839,-0.055 0.36109,-0.11775 v 2.33138 h 2.11943 v 0.65938 h -2.11943 v 5.30643 q 0,0.83208 0.25904,1.20887 0.26689,0.36893 0.89487,0.36893 0.44744,0 0.96552,-0.29044 z"
             style="font-style:normal;font-variant:normal;font-weight:300;font-stretch:normal;font-size:16.0763px;font-family:'Segoe UI';-inkscape-font-specification:'Segoe UI Light';stroke-width:0.748093"
             id="path1090" />
          <path
             d="m 160.70086,121.85657 q -0.56518,0.26689 -1.05971,0.26689 -1.7819,0 -1.7819,-2.13513 v -5.40063 h -1.44435 v -0.65938 h 1.44435 v -2.08804 q 0.1727,-0.0628 0.36109,-0.12559 0.18839,-0.055 0.36109,-0.11775 v 2.33138 h 2.11943 v 0.65938 h -2.11943 v 5.30643 q 0,0.83208 0.25904,1.20887 0.26689,0.36893 0.89487,0.36893 0.44744,0 0.96552,-0.29044 z"
             style="font-style:normal;font-variant:normal;font-weight:300;font-stretch:normal;font-size:16.0763px;font-family:'Segoe UI';-inkscape-font-specification:'Segoe UI Light';stroke-width:0.748093"
             id="path1092" />
          <path
             d="m 162.6476,111.90308 q -0.23549,0 -0.41603,-0.17269 -0.18055,-0.1727 -0.18055,-0.43959 0,-0.25904 0.18055,-0.41604 0.18839,-0.16484 0.41603,-0.16484 0.24335,0 0.42389,0.15699 0.18839,0.157 0.18839,0.42389 0,0.25119 -0.18054,0.43174 -0.18055,0.18054 -0.43174,0.18054 z m -0.35324,10.06339 v -8.03815 h 0.72218 v 8.03815 z"
             style="font-style:normal;font-variant:normal;font-weight:300;font-stretch:normal;font-size:16.0763px;font-family:'Segoe UI';-inkscape-font-specification:'Segoe UI Light';stroke-width:0.748093"
             id="path1094" />
          <path
             d="m 171.05469,121.96647 v -4.67846 q 0,-2.89656 -2.08803,-2.89656 -1.16177,0 -1.90749,0.85563 -0.74573,0.84777 -0.74573,2.10373 v 4.61566 h -0.72218 v -8.03815 h 0.72218 v 1.46005 h 0.0314 q 0.87917,-1.65629 2.74741,-1.65629 1.30306,0 1.99384,0.87132 0.69078,0.86347 0.69078,2.47267 v 4.8904 z"
             style="font-style:normal;font-variant:normal;font-weight:300;font-stretch:normal;font-size:16.0763px;font-family:'Segoe UI';-inkscape-font-specification:'Segoe UI Light';stroke-width:0.748093"
             id="path1096" />
          <path
             d="m 180.62354,121.36989 q 0,2.26858 -0.98907,3.32044 -0.98906,1.05187 -3.0771,1.05187 -1.16176,0 -2.39417,-0.61228 v -0.75358 q 1.27166,0.70648 2.40987,0.70648 3.3283,0 3.3283,-3.51669 v -1.04402 h -0.0314 q -0.94982,1.6406 -2.89656,1.6406 -1.48361,0 -2.42558,-1.07541 -0.93412,-1.07542 -0.93412,-2.99861 0,-1.92319 1.01262,-3.1399 1.01262,-1.21671 2.66892,-1.21671 1.77404,0 2.57472,1.4679 h 0.0314 v -1.27166 h 0.72217 z m -0.72217,-4.35662 q 0,-1.06756 -0.72218,-1.84469 -0.71433,-0.77713 -1.86824,-0.77713 -1.32661,0 -2.13514,0.99692 -0.80852,0.99692 -0.80852,2.63752 0,1.64845 0.73788,2.56687 0.74572,0.91057 1.96243,0.91057 1.29521,0 2.06449,-0.83992 0.76928,-0.83992 0.76928,-2.05664 z"
             style="font-style:normal;font-variant:normal;font-weight:300;font-stretch:normal;font-size:16.0763px;font-family:'Segoe UI';-inkscape-font-specification:'Segoe UI Light';stroke-width:0.748093"
             id="path1098" />
          <path
             d="m 182.78223,121.61323 v -0.87132 q 0.40818,0.35324 0.98907,0.55733 0.58088,0.20409 1.00476,0.20409 1.8918,0 1.8918,-1.5464 0,-0.53378 -0.41604,-0.91057 -0.41604,-0.37679 -1.35016,-0.77713 -1.15391,-0.50238 -1.6249,-1.03616 -0.46313,-0.54164 -0.46313,-1.31091 0,-0.98122 0.74572,-1.58565 0.75358,-0.60443 1.85254,-0.60443 1.03617,0 1.77405,0.42388 v 0.81638 q -0.89487,-0.58089 -1.85254,-0.58089 -0.79283,0 -1.27951,0.41604 -0.48669,0.40819 -0.48669,1.06757 0,0.57303 0.30614,0.93412 0.30614,0.35324 1.35016,0.81637 1.25596,0.56519 1.72695,1.05187 0.47098,0.47884 0.47098,1.27951 0,0.95767 -0.72218,1.58565 -0.71432,0.62013 -1.97813,0.62013 -1.16177,0 -1.93889,-0.54948 z"
             style="font-style:normal;font-variant:normal;font-weight:300;font-stretch:normal;font-size:16.0763px;font-family:'Segoe UI';-inkscape-font-specification:'Segoe UI Light';stroke-width:0.748093"
             id="path1100" />
          <path
             d="m 197.02168,121.85657 q -0.56518,0.26689 -1.05972,0.26689 -1.78189,0 -1.78189,-2.13513 v -5.40063 h -1.44436 v -0.65938 h 1.44436 v -2.08804 q 0.17269,-0.0628 0.36109,-0.12559 0.18839,-0.055 0.36109,-0.11775 v 2.33138 h 2.11943 v 0.65938 h -2.11943 v 5.30643 q 0,0.83208 0.25904,1.20887 0.26689,0.36893 0.89487,0.36893 0.44744,0 0.96552,-0.29044 z"
             style="font-style:normal;font-variant:normal;font-weight:300;font-stretch:normal;font-size:16.0763px;font-family:'Segoe UI';-inkscape-font-specification:'Segoe UI Light';stroke-width:0.748093"
             id="path1102" />
          <path
             d="m 201.84144,122.16271 q -1.75835,0 -2.78667,-1.15391 -1.02046,-1.16177 -1.02046,-3.01431 0,-2.00169 1.06756,-3.13205 1.07542,-1.13036 2.82591,-1.13036 1.7191,0 2.71602,1.12251 0.99692,1.12252 0.99692,3.1085 0,1.8761 -1.02047,3.03786 -1.01262,1.16176 -2.77881,1.16176 z m 0.0549,-7.77126 q -1.42081,0 -2.26858,0.95767 -0.83993,0.95767 -0.83993,2.66107 0,1.5778 0.82423,2.53547 0.82422,0.95767 2.25288,0.95767 1.4522,0 2.23718,-0.94197 0.78497,-0.94197 0.78497,-2.61397 0,-1.71909 -0.78497,-2.63751 -0.77713,-0.91843 -2.20578,-0.91843 z"
             style="font-style:normal;font-variant:normal;font-weight:300;font-stretch:normal;font-size:16.0763px;font-family:'Segoe UI';-inkscape-font-specification:'Segoe UI Light';stroke-width:0.748093"
             id="path1104" />
          <path
             d="m 216.84232,121.96647 v -1.6092 h -0.0314 q -0.38464,0.82422 -1.12252,1.31876 -0.73002,0.48668 -1.6249,0.48668 -1.14606,0 -1.81329,-0.64368 -0.66723,-0.64368 -0.66723,-1.6249 0,-2.10373 2.78667,-2.54332 l 2.47267,-0.36894 q 0,-2.59042 -1.94674,-2.59042 -1.32661,0 -2.58257,1.06757 v -0.87132 q 0.44744,-0.35324 1.20886,-0.60443 0.76928,-0.25119 1.44436,-0.25119 1.24026,0 1.91534,0.76927 0.68293,0.76928 0.68293,2.23718 v 5.22794 z m -2.21363,-4.00338 q -1.26381,0.18055 -1.77405,0.58874 -0.51023,0.40033 -0.51023,1.3109 0,0.71433 0.47098,1.17747 0.47884,0.46313 1.32661,0.46313 1.16177,0 1.93104,-0.85562 0.76928,-0.86347 0.76928,-2.22148 v -0.78498 z"
             style="font-style:normal;font-variant:normal;font-weight:300;font-stretch:normal;font-size:16.0763px;font-family:'Segoe UI';-inkscape-font-specification:'Segoe UI Light';stroke-width:0.748093"
             id="path1106" />
          <path
             d="m 225.1866,121.61323 q -0.89487,0.54948 -2.13513,0.54948 -1.6406,0 -2.64537,-1.12251 -1.00477,-1.13037 -1.00477,-2.95151 0,-1.91534 1.13037,-3.13205 1.13036,-1.22456 2.90441,-1.22456 0.91842,0 1.78189,0.37678 v 0.81638 q -0.86347,-0.53379 -1.89179,-0.53379 -1.41296,0 -2.29213,1.02047 -0.87917,1.01262 -0.87917,2.62967 0,1.5621 0.80067,2.51192 0.80853,0.94982 2.12729,0.94982 1.20886,0 2.10373,-0.64368 z"
             style="font-style:normal;font-variant:normal;font-weight:300;font-stretch:normal;font-size:16.0763px;font-family:'Segoe UI';-inkscape-font-specification:'Segoe UI Light';stroke-width:0.748093"
             id="path1108" />
          <path
             d="m 230.2968,121.85657 q -0.56519,0.26689 -1.05972,0.26689 -1.7819,0 -1.7819,-2.13513 v -5.40063 h -1.44435 v -0.65938 h 1.44435 v -2.08804 q 0.1727,-0.0628 0.36109,-0.12559 0.1884,-0.055 0.36109,-0.11775 v 2.33138 h 2.11944 v 0.65938 h -2.11944 v 5.30643 q 0,0.83208 0.25904,1.20887 0.26689,0.36893 0.89488,0.36893 0.44743,0 0.96552,-0.29044 z"
             style="font-style:normal;font-variant:normal;font-weight:300;font-stretch:normal;font-size:16.0763px;font-family:'Segoe UI';-inkscape-font-specification:'Segoe UI Light';stroke-width:0.748093"
             id="path1110" />
          <path
             d="m 232.24354,111.90308 q -0.23549,0 -0.41603,-0.17269 -0.18055,-0.1727 -0.18055,-0.43959 0,-0.25904 0.18055,-0.41604 0.18839,-0.16484 0.41603,-0.16484 0.24334,0 0.42389,0.15699 0.18839,0.157 0.18839,0.42389 0,0.25119 -0.18054,0.43174 -0.18055,0.18054 -0.43174,0.18054 z m -0.35324,10.06339 v -8.03815 h 0.72218 v 8.03815 z"
             style="font-style:normal;font-variant:normal;font-weight:300;font-stretch:normal;font-size:16.0763px;font-family:'Segoe UI';-inkscape-font-specification:'Segoe UI Light';stroke-width:0.748093"
             id="path1112" />
          <path
             d="m 237.82471,121.96647 h -0.65938 l -3.1085,-8.03815 h 0.80852 l 2.39418,6.39755 q 0.17269,0.46314 0.24334,0.83992 h 0.0314 q 0.10205,-0.49453 0.22764,-0.80852 l 2.47268,-6.42895 h 0.78497 z"
             style="font-style:normal;font-variant:normal;font-weight:300;font-stretch:normal;font-size:16.0763px;font-family:'Segoe UI';-inkscape-font-specification:'Segoe UI Light';stroke-width:0.748093"
             id="path1114" />
          <path
             d="m 247.27582,121.96647 v -1.6092 h -0.0314 q -0.38464,0.82422 -1.12251,1.31876 -0.73003,0.48668 -1.6249,0.48668 -1.14607,0 -1.8133,-0.64368 -0.66723,-0.64368 -0.66723,-1.6249 0,-2.10373 2.78667,-2.54332 l 2.47267,-0.36894 q 0,-2.59042 -1.94674,-2.59042 -1.32661,0 -2.58257,1.06757 v -0.87132 q 0.44744,-0.35324 1.20886,-0.60443 0.76928,-0.25119 1.44436,-0.25119 1.24026,0 1.91534,0.76927 0.68293,0.76928 0.68293,2.23718 v 5.22794 z m -2.21363,-4.00338 q -1.26381,0.18055 -1.77405,0.58874 -0.51023,0.40033 -0.51023,1.3109 0,0.71433 0.47099,1.17747 0.47883,0.46313 1.3266,0.46313 1.16177,0 1.93104,-0.85562 0.76928,-0.86347 0.76928,-2.22148 v -0.78498 z"
             style="font-style:normal;font-variant:normal;font-weight:300;font-stretch:normal;font-size:16.0763px;font-family:'Segoe UI';-inkscape-font-specification:'Segoe UI Light';stroke-width:0.748093"
             id="path1116" />
          <path
             d="m 253.59488,121.85657 q -0.56519,0.26689 -1.05972,0.26689 -1.7819,0 -1.7819,-2.13513 v -5.40063 h -1.44435 v -0.65938 h 1.44435 v -2.08804 q 0.1727,-0.0628 0.36109,-0.12559 0.1884,-0.055 0.36109,-0.11775 v 2.33138 h 2.11944 v 0.65938 h -2.11944 v 5.30643 q 0,0.83208 0.25904,1.20887 0.2669,0.36893 0.89488,0.36893 0.44743,0 0.96552,-0.29044 z"
             style="font-style:normal;font-variant:normal;font-weight:300;font-stretch:normal;font-size:16.0763px;font-family:'Segoe UI';-inkscape-font-specification:'Segoe UI Light';stroke-width:0.748093"
             id="path1118" />
          <path
             d="m 255.36106,117.97879 q 0,1.6563 0.76143,2.59042 0.76928,0.93412 2.10373,0.93412 1.35016,0 2.63752,-0.99692 v 0.76928 q -1.24811,0.88702 -2.78666,0.88702 -1.55425,0 -2.51192,-1.11466 -0.95767,-1.11467 -0.95767,-3.14775 0,-1.75835 0.99692,-2.95936 1.00476,-1.20886 2.60611,-1.20886 1.49931,0 2.29998,1.05186 0.80068,1.05187 0.80068,2.87301 v 0.32184 z m 5.19654,-0.65938 q -0.0471,-1.3894 -0.66723,-2.15868 -0.62013,-0.76928 -1.71124,-0.76928 -1.13037,0 -1.8761,0.76143 -0.73787,0.75358 -0.91057,2.16653 z"
             style="font-style:normal;font-variant:normal;font-weight:300;font-stretch:normal;font-size:16.0763px;font-family:'Segoe UI';-inkscape-font-specification:'Segoe UI Light';stroke-width:0.748093"
             id="path1120" />
          <path
             d="m 277.11275,121.96647 h -0.64368 l -2.50408,-8.46989 q -0.18839,-0.65153 -0.21194,-1.05971 h -0.0314 q -0.0236,0.34538 -0.24334,1.04401 l -2.66892,8.48559 h -0.64368 l -3.34399,-11.25655 h 0.87132 l 2.56687,9.01937 q 0.17269,0.61228 0.24334,0.99692 h 0.0314 q 0.0471,-0.29044 0.27474,-0.99692 l 2.77882,-9.01937 h 0.39248 l 2.55117,9.01937 q 0.18055,0.62798 0.24335,0.99692 h 0.0314 q 0.0392,-0.2198 0.12559,-0.50239 l 2.63752,-9.5139 h 0.83992 z"
             style="font-style:normal;font-variant:normal;font-weight:300;font-stretch:normal;font-size:16.0763px;font-family:'Segoe UI';-inkscape-font-specification:'Segoe UI Light';stroke-width:0.748093"
             id="path1122" />
          <path
             d="m 282.45057,111.90308 q -0.23549,0 -0.41603,-0.17269 -0.18055,-0.1727 -0.18055,-0.43959 0,-0.25904 0.18055,-0.41604 0.18839,-0.16484 0.41603,-0.16484 0.24335,0 0.42389,0.15699 0.18839,0.157 0.18839,0.42389 0,0.25119 -0.18054,0.43174 -0.18054,0.18054 -0.43174,0.18054 z m -0.35324,10.06339 v -8.03815 h 0.72218 v 8.03815 z"
             style="font-style:normal;font-variant:normal;font-weight:300;font-stretch:normal;font-size:16.0763px;font-family:'Segoe UI';-inkscape-font-specification:'Segoe UI Light';stroke-width:0.748093"
             id="path1124" />
          <path
             d="m 290.85765,121.96647 v -4.67846 q 0,-2.89656 -2.08803,-2.89656 -1.16176,0 -1.90749,0.85563 -0.74573,0.84777 -0.74573,2.10373 v 4.61566 h -0.72218 v -8.03815 h 0.72218 v 1.46005 h 0.0314 q 0.87917,-1.65629 2.74742,-1.65629 1.30306,0 1.99383,0.87132 0.69078,0.86347 0.69078,2.47267 v 4.8904 z"
             style="font-style:normal;font-variant:normal;font-weight:300;font-stretch:normal;font-size:16.0763px;font-family:'Segoe UI';-inkscape-font-specification:'Segoe UI Light';stroke-width:0.748093"
             id="path1126" />
          <path
             d="m 299.70433,121.96647 v -1.46006 h -0.0314 q -0.39249,0.76143 -1.16176,1.20887 -0.76928,0.44743 -1.7348,0.44743 -1.4836,0 -2.42557,-1.08326 -0.93412,-1.08327 -0.93412,-2.99076 0,-1.94674 1.02046,-3.14775 1.02832,-1.20886 2.66107,-1.20886 1.80544,0 2.57472,1.4836 h 0.0314 v -5.14944 h 0.72218 v 11.90023 z m 0,-4.8904 q 0,-1.12251 -0.71433,-1.89964 -0.70648,-0.78498 -1.90749,-0.78498 -1.26381,0 -2.08803,0.97337 -0.82423,0.96552 -0.82423,2.66107 0,1.66415 0.73788,2.57472 0.74573,0.90272 1.91534,0.90272 1.37371,0 2.12728,-0.84777 0.75358,-0.85562 0.75358,-2.08019 z"
             style="font-style:normal;font-variant:normal;font-weight:300;font-stretch:normal;font-size:16.0763px;font-family:'Segoe UI';-inkscape-font-specification:'Segoe UI Light';stroke-width:0.748093"
             id="path1128" />
          <path
             d="m 306.22748,122.16271 q -1.75834,0 -2.78666,-1.15391 -1.02047,-1.16177 -1.02047,-3.01431 0,-2.00169 1.06757,-3.13205 1.07542,-1.13036 2.82591,-1.13036 1.7191,0 2.71602,1.12251 0.99692,1.12252 0.99692,3.1085 0,1.8761 -1.02047,3.03786 -1.01262,1.16176 -2.77882,1.16176 z m 0.0549,-7.77126 q -1.4208,0 -2.26858,0.95767 -0.83992,0.95767 -0.83992,2.66107 0,1.5778 0.82422,2.53547 0.82423,0.95767 2.25288,0.95767 1.45221,0 2.23718,-0.94197 0.78498,-0.94197 0.78498,-2.61397 0,-1.71909 -0.78498,-2.63751 -0.77712,-0.91843 -2.20578,-0.91843 z"
             style="font-style:normal;font-variant:normal;font-weight:300;font-stretch:normal;font-size:16.0763px;font-family:'Segoe UI';-inkscape-font-specification:'Segoe UI Light';stroke-width:0.748093"
             id="path1130" />
          <path
             d="m 318.83419,121.96647 h -0.67508 l -1.7505,-6.06001 q -0.0707,-0.25119 -0.12559,-0.67508 h -0.0393 q -0.0157,0.18054 -0.157,0.65938 l -1.96244,6.07571 h -0.67508 l -2.42557,-8.03815 h 0.80067 l 1.86825,6.41325 q 0.0706,0.25119 0.10989,0.67508 h 0.0628 q 0.0157,-0.22764 0.14915,-0.67508 l 2.04093,-6.41325 h 0.49454 l 1.82114,6.41325 q 0.0628,0.22764 0.1099,0.67508 h 0.0628 q 0,-0.22764 0.13344,-0.67508 l 1.90749,-6.41325 h 0.74573 z"
             style="font-style:normal;font-variant:normal;font-weight:300;font-stretch:normal;font-size:16.0763px;font-family:'Segoe UI';-inkscape-font-specification:'Segoe UI Light';stroke-width:0.748093"
             id="path1132" />
          <path
             d="m 322.48432,121.61323 v -0.87132 q 0.40819,0.35324 0.98907,0.55733 0.58088,0.20409 1.00477,0.20409 1.89179,0 1.89179,-1.5464 0,-0.53378 -0.41604,-0.91057 -0.41603,-0.37679 -1.35015,-0.77713 -1.15392,-0.50238 -1.6249,-1.03616 -0.46314,-0.54164 -0.46314,-1.31091 0,-0.98122 0.74573,-1.58565 0.75357,-0.60443 1.85254,-0.60443 1.03617,0 1.77404,0.42388 v 0.81638 q -0.89487,-0.58089 -1.85254,-0.58089 -0.79282,0 -1.27951,0.41604 -0.48668,0.40819 -0.48668,1.06757 0,0.57303 0.30614,0.93412 0.30614,0.35324 1.35016,0.81637 1.25596,0.56519 1.72694,1.05187 0.47099,0.47884 0.47099,1.27951 0,0.95767 -0.72218,1.58565 -0.71433,0.62013 -1.97814,0.62013 -1.16176,0 -1.93889,-0.54948 z"
             style="font-style:normal;font-variant:normal;font-weight:300;font-stretch:normal;font-size:16.0763px;font-family:'Segoe UI';-inkscape-font-specification:'Segoe UI Light';stroke-width:0.748093"
             id="path1134" />
          <path
             d="m 329.63546,122.10776 q -0.26689,0 -0.44743,-0.18054 -0.18055,-0.18839 -0.18055,-0.45529 0,-0.27474 0.18055,-0.44743 0.18054,-0.18055 0.44743,-0.18055 0.2669,0 0.45529,0.18055 0.18839,0.17269 0.18839,0.44743 0,0.2669 -0.18839,0.45529 -0.18839,0.18054 -0.45529,0.18054 z"
             style="font-style:normal;font-variant:normal;font-weight:300;font-stretch:normal;font-size:16.0763px;font-family:'Segoe UI';-inkscape-font-specification:'Segoe UI Light';stroke-width:0.748093"
             id="path1136" />
        </g>
      </g>
    </g>
  </g>
</svg>
