<?xml version="1.0" encoding="utf-8"?>
<!-- Generator: Adobe Illustrator 14.0.0, SVG Export Plug-In . SVG Version: 6.00 Build 43363)  -->
<!DOCTYPE svg PUBLIC "-//W3C//DTD SVG 1.1//EN" "http://www.w3.org/Graphics/SVG/1.1/DTD/svg11.dtd">
<svg version="1.1" xmlns="http://www.w3.org/2000/svg" xmlns:xlink="http://www.w3.org/1999/xlink" x="0px" y="0px" width="23px"
	 height="23px" viewBox="0 0 23 23" enable-background="new 0 0 23 23" xml:space="preserve">
<g id="Layer_1" inkscape:version="0.91 r" sodipodi:docname="cinnamon-logo.svg" xmlns:dc="http://purl.org/dc/elements/1.1/" xmlns:cc="http://creativecommons.org/ns#" xmlns:rdf="http://www.w3.org/1999/02/22-rdf-syntax-ns#" xmlns:svg="http://www.w3.org/2000/svg" xmlns:inkscape="http://www.inkscape.org/namespaces/inkscape" xmlns:sodipodi="http://sodipodi.sourceforge.net/DTD/sodipodi-0.dtd">
	
		<sodipodi:namedview  id="namedview3440" inkscape:current-layer="Layer_1" inkscape:window-y="0" inkscape:window-x="0" fit-margin-bottom="0" fit-margin-right="0" inkscape:window-height="1151" inkscape:window-width="1920" inkscape:pageshadow="2" inkscape:pageopacity="0" inkscape:window-maximized="1" inkscape:cy="11.899999" inkscape:cx="-5.7135283" bordercolor="#666666" inkscape:zoom="10.684685" pagecolor="#ffffff" guidetolerance="10" fit-margin-left="0" gridtolerance="10" objecttolerance="10" fit-margin-top="0" borderopacity="1" showgrid="false">
		</sodipodi:namedview>
	<path id="XMLID_9_" inkscape:connector-curvature="0" fill="#ffffff" d="M12.7,21.9c0.2,0,0.399-0.101,0.7-0.101
		c0.1,0,0.199,0,0.3-0.1c0.2,0,0.5-0.101,0.7-0.2c0.1,0,0.199,0,0.3-0.1C15,21.3,15.3,21.2,15.6,21.1c0.101,0,0.101-0.1,0.2-0.1
		c0.2-0.1,0.5-0.2,0.7-0.3c0.1,0,0.2-0.101,0.3-0.2c0.2-0.1,0.4-0.2,0.5-0.3C17.4,20.1,17.5,20.1,17.6,20c0.2-0.1,0.4-0.3,0.601-0.4
		c0.1,0,0.1-0.1,0.2-0.1c0.199-0.2,0.5-0.4,0.699-0.6C19.2,18.8,19.2,18.8,19.3,18.7c0.2-0.2,0.3-0.3,0.4-0.5
		c0.1-0.101,0.1-0.2,0.2-0.3C20,17.7,20.1,17.6,20.3,17.4C20.4,17.3,20.4,17.2,20.5,17.1c0.1-0.199,0.3-0.5,0.4-0.699
		c0,0,0-0.101,0.1-0.101c0.1-0.3,0.3-0.5,0.4-0.8c0-0.1,0.1-0.2,0.1-0.3c0-0.101,0.1-0.2,0.1-0.4l-5.399-6L10.4,15.4L13.2,9.8
		l-1.4-2.5l-8.7,10c0,0.101,0.1,0.101,0.1,0.2c0.2,0.2,0.3,0.5,0.5,0.7c0.1,0.1,0.2,0.2,0.3,0.3c0.2,0.2,0.4,0.4,0.6,0.6
		C4.7,19.2,4.8,19.3,4.9,19.4C5.1,19.6,5.3,19.8,5.6,19.9C5.7,20,5.7,20,5.8,20.1c0.3,0.2,0.6,0.4,1,0.601c0.1,0,0.1,0.1,0.2,0.1
		c0.3,0.101,0.6,0.3,0.9,0.4c0.1,0,0.2,0.1,0.4,0.1c0.2,0.101,0.5,0.2,0.8,0.2c0.1,0,0.3,0.1,0.4,0.1C9.8,21.7,10,21.7,10.3,21.8
		c0.1,0,0.2,0,0.4,0.101c0.4,0,0.8,0.1,1.2,0.1c0.3,0,0.7,0,1,0C12.5,22,12.6,22,12.7,21.9z"/>
</g>
<g id="Layer_2">
	<path fill="#ffffff" d="M11.5,0C5.149,0,0,5.149,0,11.5C0,17.852,5.149,23,11.5,23C17.852,23,23,17.852,23,11.5
		C23,5.149,17.852,0,11.5,0z M11.5,21.04c-5.269,0-9.54-4.272-9.54-9.54c0-5.269,4.271-9.54,9.54-9.54s9.54,4.271,9.54,9.54
		C21.04,16.768,16.769,21.04,11.5,21.04z"/>
</g>
</svg>
